<?xml version="1.0" standalone="no"?>
<!DOCTYPE svg PUBLIC "-//W3C//DTD SVG 20010904//EN"
 "http://www.w3.org/TR/2001/REC-SVG-20010904/DTD/svg10.dtd">
<svg version="1.0" xmlns="http://www.w3.org/2000/svg"
 width="660.000000pt" height="330.000000pt" viewBox="0 0 1280.000000 660.000000"
 preserveAspectRatio="xMidYMid meet">

<g transform="translate(0.000000,660.000000) scale(0.100000,-0.100000)"
fill="#000000" stroke="none">

<path d="M11755 4204 c-644 -23 -1892 -238 -2214 -382 l-43 -20 86 -47 87 -47
               182 56 c459 141 662 186 1197 270 225 35 357 53 565 78 135 16 599 16 670 1
               27 -6 51 -10 53 -8 2 1 -16 16 -39 33 -26 19 -67 37 -108 46 -70 15 -285 25
               -436 20z" />
                  

                     <path d="M11735 4093 c-339 -29 -977 -127 -1295 -198 -175 -39 -380 -96 -616
               -170 -141 -45 -147 -48 -247 -127 -206 -163 -337 -316 -562 -658 -190 -288
               -196 -298 -182 -307 6 -4 50 -9 97 -11 l85 -4 87 154 c109 193 218 349 350
               502 173 201 319 302 518 359 134 39 580 143 776 182 472 94 1079 165 1411 165
               114 0 134 -3 173 -22 54 -28 81 -64 91 -120 6 -37 7 -32 8 33 1 85 -21 174
               -47 188 -45 24 -225 41 -413 39 -107 -1 -212 -3 -234 -5z" />
                  
                     <path d="M11930 3943 c-392 -25 -874 -91 -1270 -174 -143 -30 -631 -147 -636
               -152 -14 -14 -228 -866 -220 -875 15 -14 799 113 1256 204 323 64 785 175 802
               192 13 13 277 812 270 815 -4 2 -95 -3 -202 -10z" />
                  
                     <path d="M12172 3944 c-15 -29 -264 -786 -260 -790 6 -5 349 103 359 113 10
               10 82 261 104 366 8 38 15 106 15 152 0 75 -3 87 -25 114 -27 32 -62 46 -137
               56 -39 6 -48 4 -56 -11z" />
                        <path d="M9395 3743 c-27 -20 -77 -61 -110 -93 -69 -65 -131 -103 -195 -119
               -61 -15 -191 -31 -250 -31 l-48 0 -263 -362 c-144 -200 -266 -368 -270 -374
               -6 -7 69 -27 244 -63 138 -28 260 -51 269 -51 11 0 71 81 174 238 86 130 195
               289 242 352 99 132 250 287 370 379 45 35 82 66 82 70 -1 8 -166 91 -182 91
               -7 0 -35 -17 -63 -37z" />
               
                                <path d="M9909 3585 c-68 -25 -164 -77 -219 -118 -120 -90 -279 -270 -423
               -478 -72 -104 -200 -329 -193 -337 7 -6 675 74 683 82 3 3 31 110 63 238 50
               201 141 556 156 611 6 21 -15 22 -67 2z" />
                 
                         <path d="M12334 3363 c-16 -58 -34 -112 -40 -118 -13 -12 -335 -114 -539 -169
               -580 -157 -1596 -336 -2455 -431 -139 -15 -246 -32 -262 -41 -48 -26 -134 -16
               -477 57 l-336 70 -708 -7 c-389 -4 -706 -8 -704 -10 3 -3 318 -74 437 -98 216
               -44 462 -78 725 -101 275 -24 1125 -67 1185 -60 30 3 197 26 370 51 1129 160
               1875 288 2265 389 183 47 278 78 445 145 299 120 350 149 350 204 0 36 -41
               106 -86 148 -24 22 -121 78 -136 78 -3 0 -18 -48 -34 -107z" />
              
                        <path d="M12617 3260 c7 -61 -18 -90 -116 -139 -101 -51 -352 -151 -473 -190
               -396 -126 -1127 -258 -2583 -467 -305 -44 -342 -45 -886 -14 -682 37 -944 65
               -1304 136 -204 40 -577 124 -608 136 -36 14 -60 60 -52 98 6 28 5 28 -47 34
               -29 3 -71 7 -92 8 l-40 3 -19 -60 c-34 -111 -9 -179 86 -234 204 -116 888
               -239 1792 -323 184 -17 871 -17 1060 0 872 79 1630 200 2275 362 305 77 549
               157 927 306 120 47 228 90 240 95 22 8 22 10 8 50 -16 43 -77 135 -138 204
               l-35 40 5 -45z" />
               
                        <path d="M5420 3000 c6 -11 37 -62 69 -113 32 -50 83 -137 114 -192 157 -279
               286 -691 438 -1395 67 -312 119 -544 123 -548 2 -1 148 -28 324 -59 l320 -57
               64 42 c202 131 319 145 1043 122 328 -11 453 -11 627 -1 259 15 685 55 695 65
               11 10 9 968 -1 1178 l-8 166 -297 -5 c-396 -8 -751 17 -1346 93 -503 64 -932
               158 -1096 240 -130 65 -164 152 -116 293 l15 41 -32 5 c-17 3 -130 16 -251 30
               -121 14 -263 32 -315 40 -52 8 -96 12 -98 10 -3 -2 23 -53 58 -112 82 -144
               207 -402 259 -536 23 -59 69 -190 102 -292 33 -102 64 -185 69 -185 5 0 97
               -16 206 -35 108 -19 366 -60 573 -91 207 -30 380 -59 385 -64 17 -16 -44 -159
               -83 -194 -29 -26 -64 -24 -401 25 -603 86 -630 92 -663 148 -9 15 -25 68 -36
               117 -20 91 -87 310 -135 442 -77 216 -221 519 -334 707 l-48 80 -104 27 c-131
               34 -134 34 -120 8z m3111 -1368 c160 -45 259 -155 259 -288 0 -98 -83 -255
               -174 -327 -62 -49 -210 -121 -291 -142 -146 -38 -270 -30 -417 26 -65 25 -86
               40 -134 92 -80 86 -98 131 -91 225 4 51 14 91 32 127 31 64 121 160 190 204
               47 30 192 81 288 101 66 14 263 4 338 -18z" />
               

                                       <path d="M12635 2923 c-434 -173 -662 -249 -1010 -338 -590 -151 -1378 -280
               -2100 -346 -132 -12 -246 -23 -253 -25 -11 -3 -12 -43 -5 -211 4 -115 8 -420
               8 -679 l0 -472 50 -6 c28 -3 88 -6 135 -5 72 0 81 2 60 12 -88 40 -137 114
               -145 218 -11 133 -25 753 -17 761 4 4 126 23 271 42 923 125 1951 353 2527
               562 216 78 573 234 578 252 13 43 67 294 64 296 -2 2 -75 -26 -163 -61z" />

                  <path d="M12570 2573 c-311 -137 -546 -221 -875 -312 -649 -181 -1515 -351
               -2205 -434 l-105 -12 3 -285 c2 -157 8 -339 12 -404 11 -146 34 -194 115 -235
               46 -24 59 -26 185 -25 192 0 366 34 870 166 333 87 487 133 720 215 237 83
               624 236 763 301 248 117 403 300 521 615 39 105 150 467 144 471 -1 1 -68 -26
               -148 -61z" />

</g>
</svg>