<?xml version="1.0" standalone="no"?>
<!DOCTYPE svg PUBLIC "-//W3C//DTD SVG 20010904//EN"
 "http://www.w3.org/TR/2001/REC-SVG-20010904/DTD/svg10.dtd">
<svg version="1.0" xmlns="http://www.w3.org/2000/svg"
 width="660.000000pt" height="330.000000pt" viewBox="0 0 1280.000000 660.000000"
 preserveAspectRatio="xMidYMid meet">

<g transform="translate(0.000000,660.000000) scale(0.100000,-0.100000)"
fill="#000000" stroke="none">

                      <path d="M2190 6199 c-184 -33 -408 -92 -471 -125 -35 -18 -94 -106 -119 -179
               -27 -78 -104 -386 -125 -500 -10 -49 -17 -116 -17 -148 0 -95 9 -100 218 -112
               l102 -6 -11 39 c-13 50 6 147 40 200 64 99 221 147 513 159 224 9 369 -17 452
               -81 40 -30 48 -32 48 -12 0 7 18 70 40 139 l41 126 -37 98 c-79 213 -162 326
               -276 379 -59 26 -73 28 -203 30 -77 2 -165 -2 -195 -7z" />
       
              
</g>
</svg>