<?xml version="1.0" standalone="no"?>
<!DOCTYPE svg PUBLIC "-//W3C//DTD SVG 20010904//EN"
 "http://www.w3.org/TR/2001/REC-SVG-20010904/DTD/svg10.dtd">
<svg version="1.0" xmlns="http://www.w3.org/2000/svg"
 width="660.000000pt" height="330.000000pt" viewBox="0 0 1280.000000 660.000000"
 preserveAspectRatio="xMidYMid meet">

<g transform="translate(0.000000,660.000000) scale(0.100000,-0.100000)"
fill="#000000" stroke="none">
     <path d="M7781 3419 c-103 -17 -141 -57 -182 -193 -27 -86 -21 -157 19 -247
               45 -97 89 -129 180 -129 77 0 123 18 173 69 62 61 90 146 96 291 4 96 2 108
               -19 144 -42 72 -116 90 -267 65z m-7 -79 c77 -29 77 -233 0 -302 -77 -68 -156
               -13 -156 110 0 72 24 133 68 172 37 32 49 35 88 20z" />
               
</g>
</svg>