<?xml version="1.0" standalone="no"?>
<!DOCTYPE svg PUBLIC "-//W3C//DTD SVG 20010904//EN"
 "http://www.w3.org/TR/2001/REC-SVG-20010904/DTD/svg10.dtd">
<svg version="1.0" xmlns="http://www.w3.org/2000/svg"
 width="660.000000pt" height="330.000000pt" viewBox="0 0 1280.000000 660.000000"
 preserveAspectRatio="xMidYMid meet">

<g transform="translate(0.000000,660.000000) scale(0.100000,-0.100000)"
fill="#000000" stroke="none">
        
   <path d="M6665 5333 c-370 -5 -682 -26 -1075 -73 -191 -22 -743 -100 -748
               -105 -2 -2 18 -6 45 -9 1043 -136 1482 -212 2098 -367 852 -214 1476 -448
               2242 -841 l232 -119 88 35 c170 68 424 131 829 205 421 78 783 130 1087 156
               197 17 630 20 692 6 22 -6 41 -8 43 -6 13 13 -301 192 -593 338 -223 112 -343
               160 -635 255 -326 107 -503 155 -870 236 -445 99 -616 132 -790 151 -80 10
               -316 39 -525 67 -360 47 -398 50 -710 58 -357 9 -1152 16 -1410 13z m3995
               -443 c129 -39 256 -81 282 -92 47 -20 60 -39 36 -55 -7 -4 -132 -6 -278 -5
               -262 3 -521 -10 -860 -44 -328 -32 -691 -75 -830 -99 -393 -68 -406 -70 -514
               -57 -119 13 -394 82 -591 147 -138 46 -165 58 -152 71 9 9 482 87 717 118 531
               71 953 95 1545 91 l410 -3 235 -72z" />
                
                       <path d="M9625 4939 c-137 -4 -313 -12 -390 -18 -337 -26 -535 -45 -528 -51 5
               -4 22 -12 38 -18 17 -5 140 -51 275 -101 l245 -91 260 30 c294 33 558 56 753
               66 73 4 129 10 125 14 -10 8 -516 181 -523 179 -3 -1 -117 -6 -255 -10z" />
                
                       <path d="M10265 4857 l250 -84 213 -7 c116 -3 212 -4 212 -1 0 9 -41 22 -285
               97 l-230 70 -205 5 -205 4 250 -84z" />
                  <path d="M8410 4839 c-144 -21 -560 -89 -575 -93 -17 -5 232 -84 420 -132 166
               -44 190 -47 305 -48 103 -1 163 6 340 37 118 21 230 41 249 45 32 7 8 17 -245
               110 -312 114 -292 111 -494 81z" />
                
                     <path d="M4635 5102 c-90 -44 -90 -44 45 -57 138 -13 584 -67 760 -91 765
               -105 1339 -254 2035 -527 306 -121 620 -261 1140 -510 296 -142 361 -176 363
               -194 4 -30 -19 -40 -119 -52 -116 -15 -625 -31 -976 -31 -161 0 -293 -2 -293
               -4 0 -3 12 -32 26 -65 l27 -61 406 0 c659 0 991 22 1095 71 25 11 81 52 123
               91 43 38 98 84 121 101 l44 32 -324 160 c-511 254 -828 388 -1238 525 -878
               294 -1637 456 -2855 610 -132 16 -254 32 -270 35 -22 4 -53 -6 -110 -33z" />
                 
                                      <path d="M4413 5010 c-35 -10 -123 -26 -195 -35 -145 -18 -301 -42 -333 -52
               -11 -3 122 -30 295 -59 559 -93 911 -172 1335 -299 648 -195 1176 -421 1857
               -794 l187 -102 314 1 c544 1 1053 22 1075 45 9 9 -558 283 -918 445 -921 413
               -1572 613 -2408 740 -297 45 -1034 131 -1105 129 -23 -1 -70 -9 -104 -19z" />
 
                     <path d="M7264 3620 c-124 -11 -185 -30 -274 -89 -206 -135 -431 -377 -526
               -563 -39 -76 -44 -71 78 -83 l66 -7 22 43 c66 130 273 401 355 463 94 72 203
               100 445 117 91 6 167 13 169 15 2 2 -9 28 -23 59 l-27 55 -97 -1 c-53 -1 -138
               -5 -188 -9z" /> 
</g>
</svg>