<?xml version="1.0" standalone="no"?>
<!DOCTYPE svg PUBLIC "-//W3C//DTD SVG 20010904//EN"
 "http://www.w3.org/TR/2001/REC-SVG-20010904/DTD/svg10.dtd">
<svg version="1.0" xmlns="http://www.w3.org/2000/svg"
 width="660.000000pt" height="330.000000pt" viewBox="0 0 1280.000000 660.000000"
 preserveAspectRatio="xMidYMid meet">

<g transform="translate(0.000000,660.000000) scale(0.100000,-0.100000)"
fill="#000000" stroke="none">
                  
 <path d="M390 4263 c-45 -30 -92 -78 -110 -113 -75 -148 -112 -589 -75 -885
               35 -275 56 -373 127 -595 66 -205 174 -378 267 -427 36 -19 60 -23 125 -23 70
               0 487 38 616 56 110 16 173 74 196 183 15 69 22 61 -160 161 -225 123 -254
               159 -275 340 -25 211 -33 228 -136 293 -39 24 -44 32 -129 248 -195 494 -277
               672 -341 742 -38 41 -66 46 -105 20z m82 -218 c167 -114 310 -657 295 -1120
               -7 -198 -24 -295 -69 -385 -134 -265 -352 46 -443 630 -9 58 -19 195 -22 305
               -7 304 26 475 107 558 45 45 79 48 132 12z" />
                

                      <path d="M358 4010 c-19 -19 -28 -37 -25 -48 21 -66 138 -367 145 -374 5 -5
               12 27 15 79 4 48 16 125 27 171 l20 83 -26 39 c-28 42 -80 80 -108 80 -10 0
               -31 -14 -48 -30z" />
                  <path d="M292 3878 c-9 -33 -8 -47 4 -67 7 -14 41 -104 74 -200 56 -164 67
               -190 73 -180 40 68 40 63 6 141 -18 40 -54 134 -80 208 -25 74 -51 136 -56
               137 -6 2 -15 -15 -21 -39z" />
                  <path d="M551 3833 c-28 -103 -40 -300 -19 -321 26 -26 38 -13 38 41 0 28 7
               95 14 147 14 88 13 98 -3 135 l-18 40 -12 -42z" />
                  <path d="M264 3723 c-8 -52 1 -482 10 -491 3 -3 38 26 77 65 l71 70 -68 202
               c-38 110 -72 201 -76 201 -4 0 -10 -21 -14 -47z" />
                  <path d="M617 3690 c-4 -19 -10 -82 -14 -140 -5 -94 -3 -111 15 -153 l21 -47
               35 17 c28 13 34 21 31 37 -3 12 -14 62 -24 111 -11 50 -28 117 -39 150 l-18
               60 -7 -35z" />
                  <path d="M347 3249 l-64 -65 8 -50 c4 -27 8 -56 9 -64 1 -34 15 -41 51 -26 19
               8 51 21 71 29 l37 15 -15 54 c-7 29 -14 71 -15 93 0 22 -4 49 -9 60 -7 18 -14
               14 -73 -46z" />
                  <path d="M657 3283 c-10 -9 -8 -88 2 -115 5 -13 25 -41 45 -63 l36 -40 -6 95
               c-4 52 -11 103 -16 113 -9 17 -48 24 -61 10z" />
                  <path d="M637 3113 c-2 -4 -10 -25 -17 -46 -12 -38 -11 -40 35 -108 26 -38 56
               -74 66 -80 18 -9 19 -5 19 57 0 60 -3 71 -35 114 -40 55 -61 74 -68 63z" />
                  <path d="M386 3026 c-33 -12 -61 -27 -63 -33 -11 -32 62 -255 124 -378 59
               -119 59 -121 42 200 -10 189 -18 236 -38 234 -3 0 -33 -10 -65 -23z" />
                  <path d="M514 2987 c-3 -13 -1 -92 5 -176 6 -84 11 -187 11 -230 0 -69 9 -101
               30 -101 3 0 5 119 5 265 l0 265 -22 0 c-15 0 -25 -8 -29 -23z" />
                  <path d="M597 2933 c-9 -50 -9 -313 -1 -392 8 -75 25 -78 66 -11 30 49 55 136
               67 233 l7 62 -41 40 c-23 22 -53 55 -67 73 l-25 34 -6 -39z" />

                     
                        <path d="M4493 3356 c-150 -29 -289 -88 -421 -179 -190 -131 -358 -391 -456
               -707 -87 -282 -104 -444 -71 -705 36 -292 91 -481 206 -706 204 -401 498 -699
               823 -836 223 -94 448 -139 661 -130 244 9 429 83 718 285 l108 75 -7 60 c-7
               56 -5 64 36 147 l43 88 -44 206 c-24 113 -46 202 -49 198 -4 -4 -12 -27 -19
               -50 -21 -73 -78 -191 -135 -276 -150 -225 -383 -380 -640 -425 -86 -16 -260
               -13 -361 4 -260 46 -555 228 -745 459 -376 461 -473 1085 -244 1571 52 111
               110 193 203 288 96 98 204 173 315 217 143 57 187 65 371 65 150 0 179 -3 245
               -23 91 -28 199 -82 384 -191 76 -44 140 -81 143 -81 8 0 -59 113 -153 255 -50
               77 -133 186 -182 241 l-90 101 -139 28 c-168 33 -387 42 -500 21z" />
               
                                       <path d="M4677 2979 c-129 -13 -307 -72 -307 -102 0 -21 192 -300 296 -428 51
               -64 123 -144 159 -177 90 -85 111 -84 195 1 34 34 110 122 169 196 58 73 134
               168 169 210 72 88 77 75 -55 147 -115 63 -256 123 -327 139 -80 17 -203 23
               -299 14z" />

                        <path d="M4228 2802 c-54 -41 -63 -52 -61 -78 4 -50 87 -203 201 -366 61 -87
               128 -196 151 -243 55 -112 70 -116 148 -45 31 29 72 59 90 68 20 9 33 23 33
               34 0 10 -46 85 -103 166 -57 81 -150 214 -206 296 -115 165 -157 216 -176 216
               -8 0 -42 -22 -77 -48z" />
                          <path d="M5464 2700 c-38 -15 -424 -501 -424 -534 0 -3 24 -17 53 -30 63 -30
               126 -82 178 -148 l38 -49 31 61 c17 33 79 140 139 238 59 97 122 205 140 238
               l33 62 -20 39 c-22 43 -114 133 -134 132 -7 0 -22 -4 -34 -9z" />
                  <path d="M4073 2658 c-17 -18 -49 -60 -71 -93 -150 -225 -223 -529 -193 -809
               5 -54 12 -101 15 -104 10 -10 150 20 255 55 126 42 293 114 356 154 l48 30 -5
               72 c-6 89 -34 152 -153 348 -124 203 -166 277 -186 329 -9 24 -21 46 -26 47
               -5 2 -23 -11 -40 -29z" />
                        <path d="M5623 2382 c-72 -124 -259 -473 -268 -500 -4 -13 -1 -53 6 -89 13
               -65 14 -66 94 -133 97 -81 154 -120 377 -255 95 -58 174 -101 176 -96 10 29
               -178 759 -239 929 -36 101 -82 217 -88 224 -4 4 -30 -32 -58 -80z" />
              
                      <path d="M4290 1734 c-252 -71 -440 -135 -450 -154 -6 -12 -4 -39 8 -81 28
               -99 52 -142 87 -151 77 -20 675 83 675 117 0 3 -11 27 -24 54 -29 57 -56 155
               -56 204 0 30 -4 37 -31 46 -41 14 -28 16 -209 -35z" />
                  <path d="M5364 1613 c-15 -71 -39 -128 -75 -182 -21 -32 -39 -66 -39 -75 0
               -11 100 -66 330 -181 181 -91 338 -165 349 -165 10 0 23 6 29 13 8 10 43 110
               66 193 5 18 -3 26 -56 54 -117 62 -283 163 -433 264 -82 56 -153 102 -157 104
               -4 2 -10 -9 -14 -25z" />
                           <path d="M4345 1349 c-33 -5 -138 -16 -233 -23 -96 -8 -177 -18 -182 -22 -12
               -12 86 -205 166 -328 77 -118 220 -264 337 -344 88 -60 220 -129 266 -138 l31
               -6 0 51 c0 28 -7 124 -16 213 -8 90 -19 237 -22 328 -6 142 -11 171 -30 211
               -12 26 -33 51 -48 57 -29 14 -181 14 -269 1z" />
                  <path d="M4765 1266 c-17 -25 -17 -49 -12 -284 7 -284 22 -479 40 -501 22 -26
               91 -51 144 -51 l52 0 5 43 c4 23 15 137 26 252 11 116 28 272 37 348 12 98 14
               143 7 155 -16 25 -108 53 -200 59 -80 6 -82 5 -99 -21z" />
                  <path d="M5163 1223 c-26 -25 -32 -40 -46 -133 -30 -195 -68 -544 -65 -605 l3
               -60 90 1 c50 1 119 9 155 18 142 38 346 155 448 257 60 60 174 226 170 247 -2
               7 -93 53 -203 101 -110 49 -231 103 -270 121 -88 40 -202 80 -231 80 -12 0
               -35 -12 -51 -27z" />
</g>
</svg>