<?xml version="1.0" standalone="no"?>
<!DOCTYPE svg PUBLIC "-//W3C//DTD SVG 20010904//EN"
 "http://www.w3.org/TR/2001/REC-SVG-20010904/DTD/svg10.dtd">
<svg version="1.0" xmlns="http://www.w3.org/2000/svg"
 width="660.000000pt" height="330.000000pt" viewBox="0 0 1280.000000 660.000000"
 preserveAspectRatio="xMidYMid meet">

<g transform="translate(0.000000,660.000000) scale(0.100000,-0.100000)"
fill="#000000" stroke="none">
       <path d="M3645 6594 c-352 -17 -614 -37 -942 -70 -70 -8 -74 -19 -10 -28 66
               -10 156 -57 217 -114 l56 -50 324 33 c775 80 1262 99 1915 75 415 -16 813 -47
               1172 -90 276 -34 284 -22 23 34 -454 97 -835 147 -1464 192 -196 14 -1115 27
               -1291 18z" />
                  <path d="M2265 6466 c-374 -81 -760 -281 -1110 -575 -138 -115 -321 -297 -384
               -381 -73 -98 -130 -153 -186 -180 -25 -12 -125 -37 -227 -56 -212 -39 -196
               -29 -271 -180 -63 -125 -80 -173 -64 -179 7 -3 229 -51 495 -108 l482 -103 14
               21 c8 12 44 82 81 156 54 108 81 148 136 206 37 40 74 85 82 100 8 15 27 89
               42 163 53 262 141 548 206 671 58 109 123 150 359 228 551 181 771 134 960
               -205 22 -39 62 -127 89 -195 78 -198 262 -746 280 -835 l16 -81 100 -2 c55 -1
               115 -4 133 -7 17 -4 32 -2 32 3 0 5 -42 117 -93 249 -52 131 -133 343 -182
               469 -150 394 -274 636 -368 720 -97 88 -178 114 -377 120 -117 5 -150 2 -245
               -19z m-895 -508 c0 -17 -137 -439 -171 -530 -17 -42 -36 -81 -43 -87 -9 -8
               -55 -7 -166 4 -84 9 -157 18 -163 22 -16 10 0 98 29 160 45 95 213 254 414
               391 76 52 100 62 100 40z" />
                  <path d="M1249 5868 c-241 -168 -376 -318 -396 -442 -6 -39 -3 -40 122 -51 39
               -3 91 -8 117 -11 47 -6 47 -6 63 33 25 56 176 515 172 519 -2 2 -37 -19 -78
               -48z" />
               
                       <path d="M2280 6315 c-98 -17 -169 -36 -338 -90 -246 -79 -296 -110 -356 -219
               -62 -111 -147 -392 -211 -698 -25 -119 -26 -128 -10 -151 30 -47 118 -67 360
               -83 94 -6 99 -5 84 11 -14 14 -44 18 -160 24 -148 8 -177 15 -203 53 -34 48
               -15 207 58 493 70 275 80 302 147 391 36 50 42 53 146 87 229 74 457 113 623
               104 150 -7 205 -30 295 -121 96 -97 118 -144 262 -546 30 -85 78 -225 105
               -310 100 -316 103 -323 122 -326 45 -7 31 58 -99 445 -128 380 -154 450 -215
               580 -108 226 -208 323 -369 357 -79 16 -141 16 -241 -1z" />
                
                                       <path d="M2877 5531 c-21 -67 -39 -149 -41 -183 -2 -36 -14 -89 -28 -123 -35
               -88 -40 -89 -368 -81 -146 3 -346 13 -445 21 -99 8 -185 15 -192 15 -19 0 -4
               -34 35 -78 l37 -42 455 -44 c697 -69 810 -79 815 -74 9 8 -167 561 -212 667
               l-19 44 -37 -122z" />
                  <path d="M7801 5587 c41 -29 96 -68 123 -86 l49 -34 -6 48 c-6 59 -17 68 -120
               100 -121 39 -131 33 -46 -28z" />
                  <path d="M677 5520 c-83 -14 -289 -81 -350 -113 -57 -30 -117 -89 -117 -114 0
               -17 -8 -17 160 13 153 27 193 40 252 80 42 29 136 145 116 143 -7 -1 -35 -5
               -61 -9z" />

                             <path d="M7801 5587 c41 -29 96 -68 123 -86 l49 -34 -6 48 c-6 59 -17 68 -120
               100 -121 39 -131 33 -46 -28z" />
                  <path d="M677 5520 c-83 -14 -289 -81 -350 -113 -57 -30 -117 -89 -117 -114 0
               -17 -8 -17 160 13 153 27 193 40 252 80 42 29 136 145 116 143 -7 -1 -35 -5
               -61 -9z" />

  <path d="M2170 5490 c-238 -30 -343 -91 -371 -214 -7 -31 -10 -58 -8 -60 25
               -24 871 -60 946 -40 16 4 29 24 48 73 39 104 34 130 -38 180 -75 51 -133 63
               -332 66 -99 2 -209 0 -245 -5z" />
                
                     <path d="M1254 5072 c-59 -63 -84 -103 -143 -220 -39 -79 -69 -147 -66 -152
               10 -17 41 -11 61 11 15 17 26 20 58 14 37 -5 43 -3 71 30 60 71 144 54 131
               -26 -5 -29 -1 -46 16 -73 13 -19 30 -37 38 -40 13 -4 424 -92 1339 -286 106
               -23 194 -40 196 -38 1 2 32 89 70 193 37 105 87 237 111 293 24 57 44 107 44
               112 0 4 -15 10 -32 14 -35 7 -811 84 -1367 136 -285 26 -330 33 -378 54 -29
               14 -56 32 -59 41 -3 8 -9 15 -13 14 -3 0 -38 -35 -77 -77z" />
                
                                      <path d="M3720 4840 c1490 -250 2093 -439 2920 -914 96 -55 239 -137 317 -182
               78 -44 159 -84 180 -87 45 -8 188 -7 293 2 l75 6 -140 77 c-644 352 -1069 539
               -1665 735 -501 164 -944 266 -1640 379 -206 33 -245 37 -455 39 l-230 2 345
               -57z" />
 
                                      <path d="M3 4872 c-18 -44 22 -486 67 -752 11 -63 24 -167 29 -230 9 -106 34
               -202 63 -235 4 -5 5 110 2 255 -5 221 -4 277 10 339 25 118 80 191 144 191 49
               0 153 -104 240 -239 58 -91 230 -492 364 -848 15 -42 28 -58 61 -78 82 -48
               109 -85 126 -180 l17 -85 142 -64 c78 -35 142 -61 142 -57 0 3 -16 32 -35 64
               -91 152 -130 237 -187 416 -23 75 -38 105 -68 136 -55 57 -90 140 -159 375
               -67 229 -104 390 -152 655 -17 99 -33 182 -35 184 -2 2 -175 40 -384 85 -315
               68 -383 80 -387 68z" />
 
                                      <path d="M3180 4808 c-40 -87 -190 -491 -190 -514 0 -8 27 -19 73 -28 39 -9
               241 -52 447 -96 206 -44 381 -82 389 -85 10 -4 11 -9 4 -16 -6 -6 -113 13
               -319 56 -244 52 -592 125 -598 125 -6 0 16 -867 24 -978 20 -278 24 -398 11
               -432 -6 -18 -9 -35 -7 -38 3 -2 135 -53 293 -112 l288 -107 6 201 c14 450 108
               716 341 962 106 111 221 172 385 204 93 18 263 9 343 -20 98 -34 306 -143 385
               -202 158 -117 356 -349 534 -625 40 -62 77 -113 81 -113 5 0 69 -9 142 -19 73
               -11 221 -29 328 -41 107 -11 209 -23 227 -26 31 -6 32 -4 77 83 80 153 205
               302 381 452 106 91 166 133 236 166 l52 24 -34 14 c-19 8 -137 75 -264 149
               -329 192 -425 245 -655 356 -239 116 -379 173 -620 253 -381 126 -800 227
               -1410 339 -218 40 -882 150 -905 150 -3 0 -24 -37 -45 -82z" />
                  <path d="M1262 4743 l-27 -27 30 -12 c56 -24 74 -12 75 49 0 27 -47 21 -78
               -10z" />
                  <path d="M810 4705 c0 -17 57 -324 80 -435 50 -234 153 -587 195 -670 13 -25
               35 -56 50 -70 l28 -25 -6 110 c-3 78 -18 170 -50 315 -54 244 -72 360 -92 579
               -8 90 -16 165 -17 166 -6 3 -164 35 -176 35 -6 0 -12 -2 -12 -5z" />
 
                                      <path d="M1030 4658 c0 -27 31 -336 40 -401 12 -82 33 -184 66 -327 36 -153
               54 -274 54 -365 l0 -81 128 -48 c762 -292 1659 -622 1666 -615 17 16 18 163 2
               374 -8 116 -19 398 -22 627 -4 229 -10 422 -14 428 -7 11 -37 18 -943 211
               l-609 129 -29 -23 c-16 -12 -32 -34 -35 -49 -8 -36 -40 -68 -67 -68 -38 0 -65
               28 -83 85 -15 46 -22 55 -46 60 -22 5 -51 33 -62 61 -1 1 -11 5 -23 8 -16 5
               -23 3 -23 -6z" />
 
                       <path d="M1205 4559 c16 -54 31 -74 56 -77 19 -2 28 3 37 23 18 39 16 43 -29
               55 -22 6 -47 14 -56 17 -12 5 -14 1 -8 -18z" />
                  <path d="M267 4382 c-53 -55 -70 -121 -73 -282 l-3 -145 14 64 c24 102 62 177
               118 227 28 25 63 48 79 51 16 3 30 9 33 13 9 14 -93 100 -118 100 -13 0 -36
               -13 -50 -28z" />

                        <path d="M4365 3929 c-162 -24 -295 -90 -400 -200 -224 -235 -321 -500 -331
               -909 l-5 -185 47 84 c35 63 55 118 84 230 76 293 137 442 225 553 55 68 155
               138 245 169 97 34 278 38 391 10 217 -54 407 -198 662 -503 l97 -115 117 -31
               c64 -17 118 -30 120 -29 5 6 -166 257 -246 362 -227 298 -529 507 -809 561
               -81 15 -108 16 -197 3z" />
               
                        <path d="M4323 3665 c-213 -39 -351 -172 -450 -435 -28 -73 -95 -311 -90 -317
               2 -2 20 21 40 50 141 214 387 367 677 423 132 25 313 15 528 -30 34 -7 62 -9
               62 -5 0 5 -39 43 -87 84 -158 138 -303 211 -468 235 -88 12 -122 11 -212 -5z" />
               
                                       <path d="M1193 3443 c2 -5 21 -60 42 -123 42 -130 80 -210 168 -357 l61 -102
               819 -356 c450 -196 821 -354 824 -352 2 3 -15 43 -38 88 -41 82 -43 89 -71
               314 -16 127 -30 231 -31 231 -1 1 -90 34 -197 74 -420 156 -1107 413 -1333
               499 -132 50 -241 91 -244 91 -2 0 -2 -3 0 -7z" />

 
                  <path d="M3000 2763 c1 -4 13 -105 29 -223 l28 -215 51 -101 50 -100 154 -66
               c84 -37 160 -70 169 -73 15 -5 18 6 24 87 8 117 38 265 75 382 16 49 28 91 27
               93 -3 3 -553 208 -584 217 -13 4 -23 4 -23 -1z" />

</g>
</svg>