<?xml version="1.0" standalone="no"?>
<!DOCTYPE svg PUBLIC "-//W3C//DTD SVG 20010904//EN"
 "http://www.w3.org/TR/2001/REC-SVG-20010904/DTD/svg10.dtd">
<svg version="1.0" xmlns="http://www.w3.org/2000/svg"
 width="660.000000pt" height="330.000000pt" viewBox="0 0 1280.000000 660.000000"
 preserveAspectRatio="xMidYMid meet">

<g transform="translate(0.000000,660.000000) scale(0.100000,-0.100000)"
fill="#000000" stroke="none">
  <path d="M7940 3479 c-580 -6 -676 -12 -790 -45 -93 -27 -184 -85 -210 -134
               -9 -17 5 -18 258 -17 261 2 267 2 267 -18 0 -19 -8 -20 -292 -25 -176 -3 -295
               -9 -301 -15 -63 -74 -152 -197 -152 -212 0 -4 164 -7 365 -5 330 2 366 1 372
               -14 3 -9 0 -20 -8 -25 -8 -5 -183 -9 -389 -9 l-376 0 -26 -54 c-40 -81 -45
               -119 -18 -146 22 -22 24 -22 259 -16 130 3 480 9 779 12 l542 7 144 196 c223
               306 376 519 376 525 0 4 -48 5 -107 4 -60 -1 -371 -5 -693 -9z m69 -44 c17 -8
               43 -34 59 -57 25 -39 27 -48 26 -152 0 -167 -37 -271 -119 -344 -100 -88 -280
               -81 -343 13 -36 52 -73 151 -79 210 -10 99 60 271 127 309 75 44 262 56 329
               21z" />
</g>
</svg>