<?xml version="1.0" standalone="no"?>
<!DOCTYPE svg PUBLIC "-//W3C//DTD SVG 20010904//EN"
 "http://www.w3.org/TR/2001/REC-SVG-20010904/DTD/svg10.dtd">
<svg version="1.0" xmlns="http://www.w3.org/2000/svg"
 width="660.000000pt" height="330.000000pt" viewBox="0 0 1280.000000 660.000000"
 preserveAspectRatio="xMidYMid meet">

<g transform="translate(0.000000,660.000000) scale(0.100000,-0.100000)"
fill="#000000" stroke="none">
      <path d="M4245 6413 c-216 -8 -716 -49 -1080 -89 -207 -22 -192 -13 -145 -89
               93 -153 147 -276 349 -805 77 -201 153 -396 169 -435 l29 -70 99 2 c54 1 146
               11 204 23 58 11 188 32 290 45 231 32 299 50 436 119 l109 54 360 51 c943 133
               984 136 2093 136 904 0 923 0 900 19 -32 26 -504 362 -678 483 -337 234 -652
               415 -753 433 -182 33 -933 103 -1282 120 -178 9 -888 11 -1100 3z" />
               
</g>
</svg>