<?xml version="1.0" standalone="no"?>
<!DOCTYPE svg PUBLIC "-//W3C//DTD SVG 20010904//EN"
 "http://www.w3.org/TR/2001/REC-SVG-20010904/DTD/svg10.dtd">
<svg version="1.0" xmlns="http://www.w3.org/2000/svg"
 width="660.000000pt" height="330.000000pt" viewBox="0 0 1280.000000 660.000000"
 preserveAspectRatio="xMidYMid meet">

<g transform="translate(0.000000,660.000000) scale(0.100000,-0.100000)"
fill="#000000" stroke="none">
           <path d="M6180 1788 c0 -27 30 -139 42 -157 22 -35 80 -50 353 -90 613 -90
               635 -93 661 -76 25 16 47 53 69 116 16 45 24 41 -108 60 -75 10 -80 10 -93
               -10 -38 -53 -83 -83 -126 -83 -36 0 -687 100 -698 107 -15 9 -40 74 -40 103 0
               18 -6 32 -16 36 -25 10 -44 7 -44 -6z"/>
               <path d="M6266 1775 c-4 -10 17 -81 27 -91 4 -5 198 -37 525 -88 151 -24 166
               -25 195 -11 29 14 74 62 65 69 -1 2 -140 24 -308 50 -168 26 -349 55 -402 65
               -69 12 -99 14 -102 6z"/>
       </g>
</svg>