<?xml version="1.0" standalone="no"?>
<!DOCTYPE svg PUBLIC "-//W3C//DTD SVG 20010904//EN"
 "http://www.w3.org/TR/2001/REC-SVG-20010904/DTD/svg10.dtd">
<svg version="1.0" xmlns="http://www.w3.org/2000/svg"
 width="660.000000pt" height="330.000000pt" viewBox="0 0 1280.000000 660.000000"
 preserveAspectRatio="xMidYMid meet">

<g transform="translate(0.000000,660.000000) scale(0.100000,-0.100000)"
fill="#000000" stroke="none">
<path d="M12400 1784 c-19 -25 -61 -70 -94 -100 -32 -30 -57 -56 -55 -58 2 -2
               15 -9 29 -16 14 -7 66 -44 116 -81 49 -38 95 -69 102 -69 14 0 30 56 38 131 5
               40 2 71 -10 106 -16 48 -70 133 -84 133 -4 -1 -23 -21 -42 -46z"/>
                
                  <path d="M12129 1554 c-219 -112 -825 -343 -1164 -444 -166 -49 -553 -151
               -743 -196 -299 -69 -666 -113 -836 -98 -114 9 -230 8 -294 -3 l-43 -8 93 -61
               c51 -34 159 -110 241 -169 l147 -107 93 31 c50 17 319 94 597 171 927 259
               1274 374 1925 640 110 45 224 90 253 99 29 9 54 20 54 26 2 14 -168 140 -205
               152 -29 9 -42 5 -118 -33z"/>
               
                <path d="M12550 1485 c0 -35 -35 -68 -95 -90 -28 -10 -205 -80 -395 -155 -660
               -263 -932 -352 -1860 -610 -239 -67 -492 -139 -561 -160 -137 -43 -166 -47
               -604 -75 -947 -60 -1586 -60 -2050 0 -151 19 -434 65 -679 110 -105 19 -197
               35 -206 35 -16 0 -15 -10 4 -122 l21 -122 190 -42 c105 -23 370 -88 590 -145
               l400 -104 425 1 c516 2 786 19 1567 102 178 19 267 33 279 43 10 7 36 43 60
               79 69 107 79 112 298 165 212 50 496 133 1016 296 645 202 1031 342 1332 482
               l98 46 30 -45 c17 -24 39 -44 49 -44 47 0 130 249 114 344 -6 41 -23 49 -23
               11z"/>
                 
                  <path d="M8830 790 c-253 -26 -591 -32 -1000 -17 -665 23 -737 12 -996 -153
               -19 -12 -63 -6 -349 44 -180 31 -328 56 -329 54 -1 -2 -16 -33 -33 -70 -29
               -60 -30 -67 -15 -72 55 -17 595 -109 798 -136 394 -53 888 -72 1374 -51 316
               13 1121 59 1169 67 l33 5 -43 31 c-24 17 -93 68 -154 113 -60 44 -151 107
               -200 138 -100 62 -98 62 -255 47z"/> 
</g>
</svg>