<?xml version="1.0" standalone="no"?>
<!DOCTYPE svg PUBLIC "-//W3C//DTD SVG 20010904//EN"
 "http://www.w3.org/TR/2001/REC-SVG-20010904/DTD/svg10.dtd">
<svg version="1.0" xmlns="http://www.w3.org/2000/svg"
 width="660.000000pt" height="330.000000pt" viewBox="0 0 1280.000000 660.000000"
 preserveAspectRatio="xMidYMid meet">

<g transform="translate(0.000000,660.000000) scale(0.100000,-0.100000)"
fill="#000000" stroke="none">

 <path d="M1136 2913 c8 -67 30 -117 71 -155 53 -51 358 -211 713 -375 590
               -274 1602 -734 1606 -731 2 2 -1 35 -6 73 -5 39 -12 104 -15 145 l-6 76 -112
               48 c-62 27 -592 257 -1179 512 -587 255 -1070 464 -1073 464 -3 0 -2 -26 1
               -57z" />

</g>
</svg>